<svg width="20" height="20" viewBox="0 0 20 20" fill="none" xmlns="http://www.w3.org/2000/svg">
<path d="M19.3241 8.28292L18.5308 2.33958C18.4964 2.07668 18.3762 1.83251 18.1887 1.64503C18.0012 1.45755 17.757 1.33728 17.4941 1.30292L11.5508 0.509584C11.3669 0.484888 11.1797 0.503026 11.0039 0.562581C10.8282 0.622136 10.6685 0.721499 10.5375 0.852917L0.307475 11.0796C0.110515 11.2782 0 11.5465 0 11.8263C0 12.106 0.110515 12.3743 0.307475 12.5729L7.26081 19.5263C7.4594 19.7232 7.72777 19.8337 8.00747 19.8337C8.28718 19.8337 8.55555 19.7232 8.75414 19.5263L18.9808 9.29625C19.1122 9.1652 19.2116 9.00557 19.2711 8.82979C19.3307 8.65402 19.3488 8.46686 19.3241 8.28292ZM16.6975 4.62625C16.5501 4.77362 16.3624 4.87399 16.158 4.91466C15.9536 4.95533 15.7417 4.93447 15.5492 4.85473C15.3566 4.77498 15.1921 4.63993 15.0763 4.46665C14.9605 4.29337 14.8987 4.08965 14.8987 3.88125C14.8987 3.67285 14.9605 3.46913 15.0763 3.29585C15.1921 3.12257 15.3566 2.98752 15.5492 2.90777C15.7417 2.82803 15.9536 2.80717 16.158 2.84784C16.3624 2.88851 16.5501 2.98888 16.6975 3.13625C16.8944 3.33419 17.0049 3.60204 17.0049 3.88125C17.0049 4.16046 16.8944 4.42831 16.6975 4.62625Z" fill="#F74850"/>
</svg>
